<svg xmlns="http://www.w3.org/2000/svg" width="328" height="319" viewBox="0 0 328 319">
<g>
<path d="M 0.00 159.50 L 0.00 0.00 L 164.00 0.00 L 328.00 0.00 L 328.00 159.50 L 328.00 319.00 L 164.00 319.00 L 0.00 319.00 L 0.00 159.50 ZM 203.57 252.16 C222.18,247.24 238.02,234.72 246.29,218.42 C251.56,208.01 253.51,199.44 253.42,187.00 C253.33,174.16 250.98,165.24 244.79,154.29 C240.25,146.23 229.82,135.58 221.85,130.84 C216.06,127.40 202.07,122.00 198.96,122.00 C198.43,122.00 198.00,123.97 198.00,126.38 L 198.00 130.76 L 202.75 131.96 C215.85,135.26 230.51,146.76 237.21,159.00 C243.31,170.13 244.51,175.02 244.44,188.50 C244.38,199.09 244.05,201.32 241.65,207.50 C233.13,229.38 214.39,243.56 191.42,245.50 C163.11,247.90 136.44,227.76 130.50,199.50 C126.56,180.72 131.51,163.12 144.99,148.00 C150.53,141.78 153.15,136.39 153.73,130.02 C155.18,114.09 144.26,101.26 128.34,100.19 C116.82,99.42 107.93,104.22 102.50,114.14 C100.01,118.71 99.57,120.61 99.56,127.00 C99.54,133.21 100.00,135.38 102.20,139.59 C106.24,147.28 112.56,152.20 121.19,154.34 C123.58,154.93 124.17,154.52 126.42,150.75 L 128.97 146.50 L 124.35 145.81 C115.35,144.48 109.08,137.97 108.28,129.13 C107.65,122.21 109.49,117.54 114.60,113.05 C124.27,104.55 140.08,108.63 144.05,120.65 C145.97,126.48 144.83,134.26 141.42,138.46 C139.82,140.45 136.79,144.19 134.69,146.78 C115.71,170.31 115.91,205.85 135.17,229.37 C144.09,240.27 157.37,248.81 171.00,252.41 C178.99,254.53 195.11,254.40 203.57,252.16 ZM 201.07 239.46 C228.27,231.72 245.35,204.26 239.67,177.39 C236.65,163.11 226.56,148.62 214.87,141.77 C210.68,139.31 198.08,134.55 197.50,135.20 C197.35,135.37 196.91,137.41 196.53,139.75 C195.90,143.54 196.04,144.00 197.78,144.00 C200.90,144.00 213.14,150.65 217.45,154.69 C229.10,165.61 234.46,182.64 230.98,197.72 C228.26,209.50 218.54,222.16 208.17,227.42 C199.43,231.84 190.30,233.43 181.22,232.11 C152.65,227.93 135.53,199.67 145.00,172.33 C146.93,166.76 150.73,160.85 156.47,154.50 C167.52,142.27 170.18,123.94 163.01,109.52 C159.12,101.70 151.14,93.89 143.25,90.20 C138.10,87.78 136.36,87.50 126.50,87.50 C115.98,87.50 115.21,87.65 108.69,90.91 C83.59,103.51 78.48,136.99 98.68,156.62 C103.47,161.28 112.08,165.96 116.47,166.29 C118.84,166.47 119.44,165.96 120.54,162.85 L 121.82 159.20 L 116.05 157.10 C108.78,154.45 101.68,148.26 98.29,141.62 C94.57,134.34 94.01,123.62 96.94,115.85 C99.33,109.50 106.62,101.36 112.32,98.65 C124.81,92.73 140.89,95.61 149.69,105.35 C155.51,111.79 158.24,118.94 158.20,127.67 C158.16,136.80 155.69,142.39 147.46,152.00 C141.49,158.96 136.75,167.79 135.08,175.03 C134.51,177.49 134.04,183.47 134.02,188.32 C133.94,217.62 157.17,240.89 186.57,240.97 C191.81,240.99 197.93,240.35 201.07,239.46 ZM 204.35 224.45 C227.09,213.29 234.71,185.53 220.67,165.00 C217.12,159.80 216.86,159.54 211.42,155.29 C207.41,152.15 198.31,148.00 195.46,148.00 C194.66,148.00 194.00,148.81 194.00,149.80 C194.00,150.79 193.49,152.11 192.87,152.73 C191.33,154.27 192.52,157.00 194.72,157.01 C198.28,157.03 206.59,161.79 210.36,165.97 C216.55,172.83 218.48,178.10 218.47,188.00 C218.45,198.03 216.33,203.33 209.68,210.04 C197.66,222.15 178.71,222.74 166.08,211.38 C158.85,204.88 155.56,197.60 155.53,188.03 C155.49,178.71 158.22,172.38 166.19,163.28 C175.56,152.59 180.00,140.99 180.00,127.18 C180.00,97.48 156.47,73.86 126.88,73.86 C78.90,73.86 55.11,130.80 88.83,164.93 C95.60,171.78 104.79,177.26 112.39,178.97 C116.48,179.90 116.67,179.75 117.14,175.22 C117.48,172.00 117.33,171.87 109.77,168.59 C90.85,160.36 81.27,145.09 82.17,124.61 C82.51,116.98 83.09,114.40 85.74,108.74 C99.14,80.11 136.49,73.44 158.45,95.76 C168.39,105.85 173.22,120.42 170.98,133.50 C169.26,143.55 166.44,149.38 159.19,157.95 C155.67,162.10 151.61,167.98 150.15,171.00 C147.77,175.96 147.51,177.63 147.51,188.00 C147.50,199.13 147.61,199.70 150.82,205.62 C159.34,221.32 171.39,228.28 189.00,227.66 C197.02,227.37 199.41,226.87 204.35,224.45 ZM 199.18 212.63 C210.80,206.97 217.17,192.97 213.64,180.84 C210.74,170.85 203.63,163.82 193.76,161.17 C190.08,160.18 189.99,160.23 187.05,164.58 L 184.07 169.00 L 187.72 169.00 C201.86,169.00 210.72,186.22 202.70,198.11 C196.52,207.28 184.94,209.24 175.62,202.70 C174.04,201.59 171.62,198.24 170.26,195.25 C166.42,186.87 167.90,180.94 176.04,172.00 C186.49,160.53 192.00,146.82 192.71,130.50 C193.65,109.14 186.47,91.77 170.76,77.41 C155.74,63.68 131.72,57.71 111.00,62.55 C90.45,67.35 72.68,82.89 64.73,103.00 C50.37,139.37 70.61,180.56 108.15,191.37 C115.91,193.61 116.00,193.58 116.00,188.75 L 116.00 184.50 L 109.75 182.67 C91.88,177.44 77.22,162.92 71.49,144.78 C68.52,135.38 68.12,121.81 70.53,112.55 C76.99,87.73 99.78,69.95 125.50,69.66 C136.18,69.53 143.03,71.06 152.44,75.67 C166.42,82.53 176.35,94.09 181.58,109.62 C188.02,128.70 183.18,151.05 169.25,166.46 C160.74,175.89 157.96,186.46 161.18,197.19 C163.16,203.81 171.10,211.60 178.50,214.20 C182.23,215.50 195.32,214.51 199.18,212.63 Z" fill="rgba(0,0,0,1)"/>
</g>
</svg>